# xmcd
#
# Track frame offsets:
#   150
#   12665
#   25207
#   37182
#   50202
#   59460
#   70285
#   80187
#   89950
#   102445
#   113607
#   125697
#   133695
#   147865
#   159037
#   172805
#
# Disc length: 2445 seconds
#
# Revision: 0
# Processed by: cddbd v1.5.2PL0 Copyright (c) Steve Scherf et al.
# Submitted via: uFREEDB 1.6.0
#
DISCID=ec098b10
DTITLE=Alabama Red Necks - Contry And Folk
DYEAR=1900
DGENRE=Country
TTITLE0=A World Without Love 
TTITLE1=Sweet Little Sixteen
TTITLE2=The Wanderer
TTITLE3=Laughter In The Rain
TTITLE4=All Shook You
TTITLE5=Travellin Man
TTITLE6=The Letter
TTITLE7=Don't Be Cruel
TTITLE8=A Little Bit Me, A Little Bit You
TTITLE9=I Gotta Know
TTITLE10=Back In The U.S.S.R
TTITLE11=Let Me Be You
TTITLE12=Drivin My Life Away
TTITLE13=Chains
TTITLE14=Earth Angel
TTITLE15=Poor Little Fool
EXTD=
EXTT0=
EXTT1=
EXTT2=
EXTT3=
EXTT4=
EXTT5=
EXTT6=
EXTT7=
EXTT8=
EXTT9=
EXTT10=
EXTT11=
EXTT12=
EXTT13=
EXTT14=
EXTT15=
PLAYORDER=
